<?xml version="1.0" encoding="UTF-8" standalone="no"?>
<!DOCTYPE svg PUBLIC "-//W3C//DTD SVG 1.1//EN"
 "http://www.w3.org/Graphics/SVG/1.1/DTD/svg11.dtd">
<!-- Generated by graphviz version 2.26.3 (20100126.1600)
 -->
<!-- Title: G Pages: 1 -->
<svg width="418pt" height="670pt"
 viewBox="0.00 0.00 418.00 670.00" xmlns="http://www.w3.org/2000/svg" xmlns:xlink="http://www.w3.org/1999/xlink">
<g id="graph1" class="graph" transform="scale(1 1) rotate(0) translate(4 666)">
<title>G</title>
<polygon fill="white" stroke="white" points="-4,5 -4,-666 415,-666 415,5 -4,5"/>
<g id="graph2" class="cluster"><title>cluster_Global</title>
<polyline fill="none" stroke="gray" points="54,-152 390,-152 "/>
<path fill="none" stroke="gray" d="M390,-152C396,-152 402,-158 402,-164"/>
<polyline fill="none" stroke="gray" points="402,-164 402,-642 "/>
<path fill="none" stroke="gray" d="M402,-642C402,-648 396,-654 390,-654"/>
<polyline fill="none" stroke="gray" points="390,-654 54,-654 "/>
<path fill="none" stroke="gray" d="M54,-654C48,-654 42,-648 42,-642"/>
<polyline fill="none" stroke="gray" points="42,-642 42,-164 "/>
<path fill="none" stroke="gray" d="M42,-164C42,-158 48,-152 54,-152"/>
<text text-anchor="middle" x="222" y="-640.1" font-family="Times Roman,serif" font-size="11.00" fill="gray">Global</text>
</g>
<g id="graph3" class="cluster"><title>cluster_\Chadicus</title>
<polyline fill="none" stroke="gray" points="62,-160 382,-160 "/>
<path fill="none" stroke="gray" d="M382,-160C388,-160 394,-166 394,-172"/>
<polyline fill="none" stroke="gray" points="394,-172 394,-612 "/>
<path fill="none" stroke="gray" d="M394,-612C394,-618 388,-624 382,-624"/>
<polyline fill="none" stroke="gray" points="382,-624 62,-624 "/>
<path fill="none" stroke="gray" d="M62,-624C56,-624 50,-618 50,-612"/>
<polyline fill="none" stroke="gray" points="50,-612 50,-172 "/>
<path fill="none" stroke="gray" d="M50,-172C50,-166 56,-160 62,-160"/>
<text text-anchor="middle" x="222" y="-610.1" font-family="Times Roman,serif" font-size="11.00" fill="gray">Chadicus</text>
</g>
<g id="graph4" class="cluster"><title>cluster_\Chadicus\FileInfo</title>
<polyline fill="none" stroke="gray" points="70,-250 374,-250 "/>
<path fill="none" stroke="gray" d="M374,-250C380,-250 386,-256 386,-262"/>
<polyline fill="none" stroke="gray" points="386,-262 386,-582 "/>
<path fill="none" stroke="gray" d="M386,-582C386,-588 380,-594 374,-594"/>
<polyline fill="none" stroke="gray" points="374,-594 70,-594 "/>
<path fill="none" stroke="gray" d="M70,-594C64,-594 58,-588 58,-582"/>
<polyline fill="none" stroke="gray" points="58,-582 58,-262 "/>
<path fill="none" stroke="gray" d="M58,-262C58,-256 64,-250 70,-250"/>
<text text-anchor="middle" x="222" y="-580.1" font-family="Times Roman,serif" font-size="11.00" fill="gray">FileInfo</text>
</g>
<g id="graph5" class="cluster"><title>cluster_\Chadicus\IO</title>
<polyline fill="none" stroke="gray" points="299,-168 357,-168 "/>
<path fill="none" stroke="gray" d="M357,-168C363,-168 369,-174 369,-180"/>
<polyline fill="none" stroke="gray" points="369,-180 369,-230 "/>
<path fill="none" stroke="gray" d="M369,-230C369,-236 363,-242 357,-242"/>
<polyline fill="none" stroke="gray" points="357,-242 299,-242 "/>
<path fill="none" stroke="gray" d="M299,-242C293,-242 287,-236 287,-230"/>
<polyline fill="none" stroke="gray" points="287,-230 287,-180 "/>
<path fill="none" stroke="gray" d="M287,-180C287,-174 293,-168 299,-168"/>
<text text-anchor="middle" x="328" y="-228.1" font-family="Times Roman,serif" font-size="11.00" fill="gray">IO</text>
</g>
<!-- \\Chadicus\\FileInfo\\NullFilter -->
<g id="node4" class="node"><title>\\Chadicus\\FileInfo\\NullFilter</title>
<polygon fill="none" stroke="black" points="359,-564 297,-564 297,-528 359,-528 359,-564"/>
<text text-anchor="middle" x="328" y="-543.1" font-family="Times Roman,serif" font-size="11.00">NullFilter</text>
</g>
<!-- \\Chadicus\\FileInfo\\IFilter -->
<g id="node10" class="node"><title>\\Chadicus\\FileInfo\\IFilter</title>
<polygon fill="none" stroke="black" points="130,-510 76,-510 76,-474 130,-474 130,-510"/>
<text text-anchor="middle" x="103" y="-489.1" font-family="Times Roman,serif" font-size="11.00">IFilter</text>
</g>
<!-- \\Chadicus\\FileInfo\\NullFilter&#45;&gt;\\Chadicus\\FileInfo\\IFilter -->
<g id="edge6" class="edge"><title>\\Chadicus\\FileInfo\\NullFilter&#45;&gt;\\Chadicus\\FileInfo\\IFilter</title>
<path fill="none" stroke="black" stroke-dasharray="1,5" d="M296.715,-538.492C255.689,-528.645 183.808,-511.394 140.089,-500.901"/>
<polygon fill="none" stroke="black" points="140.688,-497.446 130.147,-498.515 139.054,-504.253 140.688,-497.446"/>
</g>
<!-- \\Chadicus\\FileInfo\\FilterIterator -->
<g id="node5" class="node"><title>\\Chadicus\\FileInfo\\FilterIterator</title>
<polygon fill="none" stroke="black" points="369,-348 287,-348 287,-312 369,-312 369,-348"/>
<text text-anchor="middle" x="328" y="-327.1" font-family="Times Roman,serif" font-size="11.00">FilterIterator</text>
</g>
<!-- \\FilterIterator -->
<g id="node16" class="node"><title>\\FilterIterator</title>
<ellipse fill="none" stroke="black" cx="103" cy="-126" rx="77.0746" ry="18.3848"/>
<text text-anchor="middle" x="103" y="-122.4" font-family="Times Roman,serif" font-size="14.00" fill="gray">\FilterIterator</text>
</g>
<!-- \\Chadicus\\FileInfo\\FilterIterator&#45;&gt;\\FilterIterator -->
<g id="edge8" class="edge"><title>\\Chadicus\\FileInfo\\FilterIterator&#45;&gt;\\FilterIterator</title>
<path fill="none" stroke="black" d="M291.435,-311.907C286.779,-309.13 282.184,-306.136 278,-303 215.952,-256.503 154.913,-188.232 123.95,-151.553"/>
<polygon fill="none" stroke="black" points="126.557,-149.215 117.453,-143.796 121.19,-153.709 126.557,-149.215"/>
</g>
<!-- \\Chadicus\\FileInfo\\Collection -->
<g id="node6" class="node"><title>\\Chadicus\\FileInfo\\Collection</title>
<polygon fill="none" stroke="black" points="362,-294 294,-294 294,-258 362,-258 362,-294"/>
<text text-anchor="middle" x="328" y="-273.1" font-family="Times Roman,serif" font-size="11.00">Collection</text>
</g>
<!-- \\IteratorAggregate -->
<g id="node18" class="node"><title>\\IteratorAggregate</title>
<ellipse fill="none" stroke="black" cx="103" cy="-72" rx="102.03" ry="18.3848"/>
<text text-anchor="middle" x="103" y="-68.4" font-family="Times Roman,serif" font-size="14.00" fill="gray">\IteratorAggregate</text>
</g>
<!-- \\Chadicus\\FileInfo\\Collection&#45;&gt;\\IteratorAggregate -->
<g id="edge10" class="edge"><title>\\Chadicus\\FileInfo\\Collection&#45;&gt;\\IteratorAggregate</title>
<path fill="none" stroke="black" stroke-dasharray="1,5" d="M293.984,-259.257C288.199,-255.431 282.588,-250.995 278,-246 228.79,-192.42 262.299,-145.075 206,-99 200.762,-94.7129 194.914,-91.0998 188.74,-88.0556"/>
<polygon fill="none" stroke="black" points="190.055,-84.8105 179.492,-83.9904 187.238,-91.2187 190.055,-84.8105"/>
</g>
<!-- \\Chadicus\\FileInfo\\IsDirectoryFilter -->
<g id="node7" class="node"><title>\\Chadicus\\FileInfo\\IsDirectoryFilter</title>
<polygon fill="none" stroke="black" points="378,-510 278,-510 278,-474 378,-474 378,-510"/>
<text text-anchor="middle" x="328" y="-489.1" font-family="Times Roman,serif" font-size="11.00">IsDirectoryFilter</text>
</g>
<!-- \\Chadicus\\FileInfo\\IsDirectoryFilter&#45;&gt;\\Chadicus\\FileInfo\\IFilter -->
<g id="edge12" class="edge"><title>\\Chadicus\\FileInfo\\IsDirectoryFilter&#45;&gt;\\Chadicus\\FileInfo\\IFilter</title>
<path fill="none" stroke="black" stroke-dasharray="1,5" d="M277.786,-492C236.114,-492 177.792,-492 140.203,-492"/>
<polygon fill="none" stroke="black" points="140.182,-488.5 130.182,-492 140.182,-495.5 140.182,-488.5"/>
</g>
<!-- \\Chadicus\\FileInfo\\NullComparer -->
<g id="node8" class="node"><title>\\Chadicus\\FileInfo\\NullComparer</title>
<polygon fill="none" stroke="black" points="373,-402 283,-402 283,-366 373,-366 373,-402"/>
<text text-anchor="middle" x="328" y="-381.1" font-family="Times Roman,serif" font-size="11.00">NullComparer</text>
</g>
<!-- \\Chadicus\\FileInfo\\IComparer -->
<g id="node11" class="node"><title>\\Chadicus\\FileInfo\\IComparer</title>
<polygon fill="none" stroke="black" points="139,-402 67,-402 67,-366 139,-366 139,-402"/>
<text text-anchor="middle" x="103" y="-381.1" font-family="Times Roman,serif" font-size="11.00">IComparer</text>
</g>
<!-- \\Chadicus\\FileInfo\\NullComparer&#45;&gt;\\Chadicus\\FileInfo\\IComparer -->
<g id="edge14" class="edge"><title>\\Chadicus\\FileInfo\\NullComparer&#45;&gt;\\Chadicus\\FileInfo\\IComparer</title>
<path fill="none" stroke="black" stroke-dasharray="1,5" d="M282.468,-384C243.805,-384 188.55,-384 149.588,-384"/>
<polygon fill="none" stroke="black" points="149.557,-380.5 139.557,-384 149.557,-387.5 149.557,-380.5"/>
</g>
<!-- \\Chadicus\\FileInfo\\ExtensionFilter -->
<g id="node9" class="node"><title>\\Chadicus\\FileInfo\\ExtensionFilter</title>
<polygon fill="none" stroke="black" points="376,-456 280,-456 280,-420 376,-420 376,-456"/>
<text text-anchor="middle" x="328" y="-435.1" font-family="Times Roman,serif" font-size="11.00">ExtensionFilter</text>
</g>
<!-- \\Chadicus\\FileInfo\\ExtensionFilter&#45;&gt;\\Chadicus\\FileInfo\\IFilter -->
<g id="edge16" class="edge"><title>\\Chadicus\\FileInfo\\ExtensionFilter&#45;&gt;\\Chadicus\\FileInfo\\IFilter</title>
<path fill="none" stroke="black" stroke-dasharray="1,5" d="M279.455,-449.651C237.771,-459.655 178.546,-473.869 140.443,-483.014"/>
<polygon fill="none" stroke="black" points="139.196,-479.714 130.289,-485.451 140.829,-486.52 139.196,-479.714"/>
</g>
<!-- \\Chadicus\\IO\\Directory -->
<g id="node13" class="node"><title>\\Chadicus\\IO\\Directory</title>
<polygon fill="none" stroke="black" points="361,-212 295,-212 295,-176 361,-176 361,-212"/>
<text text-anchor="middle" x="328" y="-191.1" font-family="Times Roman,serif" font-size="11.00">Directory</text>
</g>
<!-- \\Chadicus\\IO\\Directory&#45;&gt;\\IteratorAggregate -->
<g id="edge20" class="edge"><title>\\Chadicus\\IO\\Directory&#45;&gt;\\IteratorAggregate</title>
<path fill="none" stroke="black" stroke-dasharray="1,5" d="M309.797,-175.885C287.288,-154.477 246.913,-119.219 206,-99 197.907,-95.0003 189.153,-91.544 180.285,-88.5694"/>
<polygon fill="none" stroke="black" points="181.233,-85.1986 170.643,-85.5277 179.127,-91.8743 181.233,-85.1986"/>
</g>
<!-- \\Directory -->
<g id="node23" class="node"><title>\\Directory</title>
<ellipse fill="none" stroke="black" cx="103" cy="-18" rx="60.1041" ry="18.3848"/>
<text text-anchor="middle" x="103" y="-14.4" font-family="Times Roman,serif" font-size="14.00" fill="gray">\Directory</text>
</g>
<!-- \\Chadicus\\IO\\Directory&#45;&gt;\\Directory -->
<g id="edge18" class="edge"><title>\\Chadicus\\IO\\Directory&#45;&gt;\\Directory</title>
<path fill="none" stroke="black" d="M318.232,-175.737C300.334,-144.077 259.18,-79.127 206,-45 194.357,-37.5284 180.719,-32.1178 167.248,-28.2017"/>
<polygon fill="none" stroke="black" points="168.063,-24.7968 157.499,-25.6062 166.262,-31.5612 168.063,-24.7968"/>
</g>
</g>
</svg>
