<?xml version="1.0" encoding="UTF-8" standalone="no"?>
<!DOCTYPE svg PUBLIC "-//W3C//DTD SVG 1.1//EN"
 "http://www.w3.org/Graphics/SVG/1.1/DTD/svg11.dtd">
<!-- Generated by graphviz version 2.26.3 (20100126.1600)
 -->
<!-- Title: G Pages: 1 -->
<svg width="384pt" height="174pt"
 viewBox="0.00 0.00 384.00 174.00" xmlns="http://www.w3.org/2000/svg" xmlns:xlink="http://www.w3.org/1999/xlink">
<g id="graph1" class="graph" transform="scale(1 1) rotate(0) translate(4 170)">
<title>G</title>
<polygon fill="white" stroke="white" points="-4,5 -4,-170 381,-170 381,5 -4,5"/>
<g id="graph2" class="cluster"><title>cluster_Global</title>
<polyline fill="none" stroke="gray" points="266,-8 356,-8 "/>
<path fill="none" stroke="gray" d="M356,-8C362,-8 368,-14 368,-20"/>
<polyline fill="none" stroke="gray" points="368,-20 368,-146 "/>
<path fill="none" stroke="gray" d="M368,-146C368,-152 362,-158 356,-158"/>
<polyline fill="none" stroke="gray" points="356,-158 266,-158 "/>
<path fill="none" stroke="gray" d="M266,-158C260,-158 254,-152 254,-146"/>
<polyline fill="none" stroke="gray" points="254,-146 254,-20 "/>
<path fill="none" stroke="gray" d="M254,-20C254,-14 260,-8 266,-8"/>
<text text-anchor="middle" x="311" y="-144.1" font-family="Times Roman,serif" font-size="11.00" fill="gray">Global</text>
</g>
<g id="graph3" class="cluster"><title>cluster_\Chadicus</title>
<polyline fill="none" stroke="gray" points="274,-16 348,-16 "/>
<path fill="none" stroke="gray" d="M348,-16C354,-16 360,-22 360,-28"/>
<polyline fill="none" stroke="gray" points="360,-28 360,-116 "/>
<path fill="none" stroke="gray" d="M360,-116C360,-122 354,-128 348,-128"/>
<polyline fill="none" stroke="gray" points="348,-128 274,-128 "/>
<path fill="none" stroke="gray" d="M274,-128C268,-128 262,-122 262,-116"/>
<polyline fill="none" stroke="gray" points="262,-116 262,-28 "/>
<path fill="none" stroke="gray" d="M262,-28C262,-22 268,-16 274,-16"/>
<text text-anchor="middle" x="311" y="-114.1" font-family="Times Roman,serif" font-size="11.00" fill="gray">Chadicus</text>
</g>
<g id="graph4" class="cluster"><title>cluster_\Chadicus\IO</title>
<polyline fill="none" stroke="gray" points="282,-24 340,-24 "/>
<path fill="none" stroke="gray" d="M340,-24C346,-24 352,-30 352,-36"/>
<polyline fill="none" stroke="gray" points="352,-36 352,-86 "/>
<path fill="none" stroke="gray" d="M352,-86C352,-92 346,-98 340,-98"/>
<polyline fill="none" stroke="gray" points="340,-98 282,-98 "/>
<path fill="none" stroke="gray" d="M282,-98C276,-98 270,-92 270,-86"/>
<polyline fill="none" stroke="gray" points="270,-86 270,-36 "/>
<path fill="none" stroke="gray" d="M270,-36C270,-30 276,-24 282,-24"/>
<text text-anchor="middle" x="311" y="-84.1" font-family="Times Roman,serif" font-size="11.00" fill="gray">IO</text>
</g>
<!-- \\Chadicus\\IO\\Directory -->
<g id="node4" class="node"><title>\\Chadicus\\IO\\Directory</title>
<polygon fill="none" stroke="black" points="344,-68 278,-68 278,-32 344,-32 344,-68"/>
<text text-anchor="middle" x="311" y="-47.1" font-family="Times Roman,serif" font-size="11.00">Directory</text>
</g>
<!-- \\Directory -->
<g id="node6" class="node"><title>\\Directory</title>
<ellipse fill="none" stroke="black" cx="103" cy="-77" rx="60.1041" ry="18.3848"/>
<text text-anchor="middle" x="103" y="-73.4" font-family="Times Roman,serif" font-size="14.00" fill="gray">\Directory</text>
</g>
<!-- \\Chadicus\\IO\\Directory&#45;&gt;\\Directory -->
<g id="edge5" class="edge"><title>\\Chadicus\\IO\\Directory&#45;&gt;\\Directory</title>
<path fill="none" stroke="black" d="M277.581,-54.338C248.19,-58.1532 204.559,-63.8169 168.268,-68.5277"/>
<polygon fill="none" stroke="black" points="167.711,-65.0705 158.245,-69.8287 168.613,-72.0123 167.711,-65.0705"/>
</g>
<!-- \\IteratorAggregate -->
<g id="node8" class="node"><title>\\IteratorAggregate</title>
<ellipse fill="none" stroke="black" cx="103" cy="-23" rx="102.03" ry="18.3848"/>
<text text-anchor="middle" x="103" y="-19.4" font-family="Times Roman,serif" font-size="14.00" fill="gray">\IteratorAggregate</text>
</g>
<!-- \\Chadicus\\IO\\Directory&#45;&gt;\\IteratorAggregate -->
<g id="edge7" class="edge"><title>\\Chadicus\\IO\\Directory&#45;&gt;\\IteratorAggregate</title>
<path fill="none" stroke="black" stroke-dasharray="1,5" d="M277.581,-45.662C255.392,-42.7817 225.088,-38.8479 195.953,-35.066"/>
<polygon fill="none" stroke="black" points="196.079,-31.553 185.711,-33.7366 195.178,-38.4948 196.079,-31.553"/>
</g>
</g>
</svg>
